<svg width="20" height="21" viewBox="0 0 20 21" fill="none" xmlns="http://www.w3.org/2000/svg">
<path d="M6.99848 0C8.99462 0 10.9912 0 12.9873 0C13.1032 0.0106094 13.2195 0.0216118 13.3355 0.0318283C14.0875 0.0998073 14.853 0.100593 15.589 0.248732C17.538 0.640496 18.8952 1.77217 19.5805 3.66222C19.9117 4.57621 19.9888 5.53145 19.9915 6.49298C19.9986 8.78933 20.0092 11.0857 19.9848 13.3816C19.9774 14.1086 19.9267 14.8465 19.788 15.5582C19.4131 17.4769 18.3164 18.8337 16.4759 19.5508C15.5882 19.8966 14.6526 19.9886 13.7107 19.998C11.5975 20.0192 9.48384 20.0389 7.37059 20.0275C6.3293 20.022 5.2825 20.0177 4.25849 19.7693C2.59988 19.3669 1.36801 18.4266 0.635169 16.8733C0.184465 15.9177 0.0469349 14.8894 0.0355396 13.8461C0.012749 11.6806 -0.0116135 9.5147 0.00606894 7.34959C0.0135348 6.43954 0.0681538 5.52162 0.201361 4.62218C0.408442 3.22016 1.08391 2.05627 2.23091 1.19572C3.21366 0.458171 4.35201 0.165036 5.55559 0.0797673C6.03577 0.0459742 6.51752 0.0263271 6.99848 0ZM10.0084 18.2706C10.0088 18.2604 10.0088 18.2502 10.0092 18.2396C10.5377 18.2396 11.0666 18.2553 11.5943 18.2365C12.7339 18.1956 13.882 18.2097 15.0098 18.0671C16.5509 17.8726 17.5926 16.9826 17.969 15.4489C18.1211 14.8289 18.171 14.1726 18.1836 13.5314C18.2201 11.6794 18.2323 9.82631 18.2178 7.97398C18.2103 7.0038 18.1793 6.02813 18.0657 5.0662C17.8751 3.44925 16.8617 2.35923 15.2609 2.03898C14.5756 1.90184 13.8632 1.86176 13.1622 1.85115C11.2969 1.82365 9.43079 1.81932 7.56549 1.84093C6.68098 1.85115 5.78861 1.88298 4.9151 2.00951C3.3838 2.23152 2.34172 3.22645 2.03404 4.73338C1.90084 5.38645 1.85447 6.06467 1.84032 6.73307C1.80574 8.35042 1.79356 9.96855 1.81085 11.5859C1.82303 12.7062 1.85172 13.8308 1.96096 14.9448C2.07334 16.0918 2.61835 17.025 3.6455 17.6191C4.27381 17.9826 4.9705 18.1343 5.68605 18.1598C7.12618 18.2101 8.5675 18.2349 10.0084 18.2706Z" fill="#1D1D1D"/>
<path d="M4.86087 10.0279C4.85105 7.19404 7.16666 4.87686 10.0096 4.87646C12.8486 4.87607 15.1367 7.1571 15.1563 10.0071C15.176 12.8394 12.8667 15.1609 10.0202 15.1712C7.18512 15.1818 4.87109 12.8744 4.86087 10.0279ZM6.67469 10.0209C6.67312 11.8677 8.15687 13.3546 10.0041 13.3577C11.8525 13.3609 13.3398 11.8818 13.3461 10.0338C13.3527 8.17915 11.8627 6.68596 10.0072 6.68675C8.1608 6.68793 6.67626 8.17325 6.67469 10.0209Z" fill="#1D1D1D"/>
<path d="M16.5596 4.66228C16.5639 5.32596 16.0394 5.8639 15.3804 5.87137C14.712 5.87883 14.165 5.34365 14.1619 4.67918C14.1587 4.01589 14.6825 3.48149 15.3439 3.47324C16.0193 3.46499 16.5553 3.98917 16.5596 4.66228Z" fill="#1D1D1D"/>
</svg>
