<svg width="20" height="21" viewBox="0 0 20 21" fill="none" xmlns="http://www.w3.org/2000/svg">
<path d="M6.99848 0.484619C8.99462 0.484619 10.9912 0.484619 12.9873 0.484619C13.1032 0.495229 13.2195 0.506231 13.3355 0.516447C14.0875 0.584426 14.853 0.585212 15.589 0.733352C17.538 1.12512 18.8952 2.25679 19.5805 4.14684C19.9117 5.06082 19.9888 6.01607 19.9915 6.9776C19.9986 9.27395 20.0092 11.5703 19.9848 13.8663C19.9774 14.5932 19.9267 15.3312 19.788 16.0428C19.4131 17.9615 18.3164 19.3183 16.4759 20.0355C15.5882 20.3813 14.6526 20.4732 13.7107 20.4826C11.5975 20.5038 9.48384 20.5235 7.37059 20.5121C6.3293 20.5066 5.2825 20.5023 4.25849 20.2539C2.59988 19.8516 1.36801 18.9113 0.63517 17.358C0.184465 16.4023 0.0469349 15.374 0.0355396 14.3307C0.012749 12.1652 -0.0116135 9.99932 0.00606894 7.83421C0.0135348 6.92416 0.0681538 6.00624 0.201361 5.1068C0.408442 3.70478 1.08391 2.54089 2.23091 1.68034C3.21366 0.94279 4.35201 0.649655 5.55559 0.564386C6.03577 0.530593 6.51752 0.510946 6.99848 0.484619ZM10.0084 18.7553C10.0088 18.745 10.0088 18.7348 10.0092 18.7242C10.5377 18.7242 11.0666 18.7399 11.5943 18.7211C12.7339 18.6802 13.882 18.6944 15.0098 18.5517C16.5509 18.3572 17.5926 17.4672 17.969 15.9335C18.1211 15.3135 18.171 14.6573 18.1836 14.016C18.2201 12.164 18.2323 10.3109 18.2178 8.4586C18.2103 7.48842 18.1793 6.51275 18.0657 5.55082C17.8751 3.93387 16.8617 2.84384 15.2609 2.5236C14.5756 2.38646 13.8632 2.34638 13.1622 2.33577C11.2969 2.30826 9.43079 2.30394 7.56549 2.32555C6.68098 2.33577 5.78861 2.3676 4.9151 2.49413C3.3838 2.71614 2.34172 3.71107 2.03404 5.218C1.90084 5.87107 1.85447 6.54929 1.84032 7.21769C1.80574 8.83504 1.79356 10.4532 1.81085 12.0705C1.82303 13.1908 1.85172 14.3154 1.96096 15.4294C2.07334 16.5764 2.61835 17.5096 3.6455 18.1038C4.27381 18.4672 4.9705 18.6189 5.68605 18.6444C7.12618 18.6947 8.5675 18.7195 10.0084 18.7553Z" fill="#E7E7E7"/>
<path d="M4.86087 10.5126C4.85105 7.67866 7.16666 5.36148 10.0096 5.36108C12.8486 5.36069 15.1367 7.64172 15.1564 10.4917C15.176 13.3241 12.8667 15.6456 10.0202 15.6558C7.18512 15.6664 4.87109 13.359 4.86087 10.5126ZM6.67469 10.5055C6.67312 12.3523 8.15687 13.8392 10.0041 13.8424C11.8525 13.8455 13.3398 12.3665 13.3461 10.5185C13.3527 8.66376 11.8627 7.17058 10.0072 7.17137C8.1608 7.17255 6.67626 8.65787 6.67469 10.5055Z" fill="#E7E7E7"/>
<path d="M16.5596 5.1469C16.5639 5.81058 16.0394 6.34852 15.3804 6.35599C14.712 6.36345 14.165 5.82827 14.1619 5.1638C14.1587 4.50051 14.6825 3.96611 15.3439 3.95786C16.0193 3.94961 16.5553 4.47379 16.5596 5.1469Z" fill="#E7E7E7"/>
</svg>
