<svg width="283" height="74" viewBox="0 0 283 74" fill="none" xmlns="http://www.w3.org/2000/svg">
<path d="M53.3977 65.3868V68.3776H52.6571V61.7315H53.3977V64.7222H55.0307V61.7315H55.7713V68.3776H55.0307V65.3868H53.3977ZM63.1218 63.3361C63.1218 62.8234 63.2453 62.4183 63.4921 62.1208C63.7453 61.817 64.1282 61.6651 64.6409 61.6651C65.1536 61.6651 65.5366 61.817 65.7897 62.1208C66.0429 62.4183 66.1695 62.8234 66.1695 63.3361V66.773C66.1695 67.2794 66.0429 67.6845 65.7897 67.9883C65.5366 68.2921 65.1536 68.444 64.6409 68.444C64.1282 68.444 63.7453 68.2921 63.4921 67.9883C63.2453 67.6845 63.1218 67.2794 63.1218 66.773V63.3361ZM63.8529 66.811C63.8529 67.1148 63.9162 67.3522 64.0428 67.5231C64.1757 67.6876 64.3751 67.7699 64.6409 67.7699C64.9131 67.7699 65.1125 67.6876 65.2391 67.5231C65.3657 67.3522 65.429 67.1148 65.429 66.811V63.2981C65.429 62.9943 65.3657 62.7601 65.2391 62.5955C65.1125 62.4246 64.9131 62.3392 64.6409 62.3392C64.3751 62.3392 64.1757 62.4246 64.0428 62.5955C63.9162 62.7601 63.8529 62.9943 63.8529 63.2981V66.811ZM73.4581 63.3361C73.4581 62.8234 73.5815 62.4183 73.8284 62.1208C74.0815 61.817 74.4645 61.6651 74.9772 61.6651C75.4899 61.6651 75.8728 61.817 76.126 62.1208C76.3792 62.4183 76.5058 62.8234 76.5058 63.3361V66.773C76.5058 67.2794 76.3792 67.6845 76.126 67.9883C75.8728 68.2921 75.4899 68.444 74.9772 68.444C74.4645 68.444 74.0815 68.2921 73.8284 67.9883C73.5815 67.6845 73.4581 67.2794 73.4581 66.773V63.3361ZM74.1891 66.811C74.1891 67.1148 74.2524 67.3522 74.379 67.5231C74.5119 67.6876 74.7113 67.7699 74.9772 67.7699C75.2493 67.7699 75.4487 67.6876 75.5753 67.5231C75.7019 67.3522 75.7652 67.1148 75.7652 66.811V63.2981C75.7652 62.9943 75.7019 62.7601 75.5753 62.5955C75.4487 62.4246 75.2493 62.3392 74.9772 62.3392C74.7113 62.3392 74.5119 62.4246 74.379 62.5955C74.2524 62.7601 74.1891 62.9943 74.1891 63.2981V66.811ZM84.9811 65.4913L84.5918 66.1464V68.3776H83.8513V61.7315H84.5918V64.9406L86.3578 61.7315H87.1078L85.4273 64.7602L87.1648 68.3776H86.4053L84.9811 65.4913ZM95.1323 67.0389L94.8759 68.3776H94.1923L95.4646 61.7315H96.5375L97.8097 68.3776H97.0691L96.8128 67.0389H95.1323ZM95.2272 66.4027H96.7084L95.9583 62.567L95.2272 66.4027ZM105.774 65.3868V68.3776H105.034V61.7315H105.774V64.7222H107.407V61.7315H108.148V68.3776H107.407V65.3868H105.774ZM125.271 62.4056C124.986 62.4056 124.771 62.4816 124.625 62.6335C124.486 62.7854 124.416 63.0227 124.416 63.3456V63.6779C124.416 63.9627 124.483 64.1811 124.616 64.333C124.755 64.4849 124.945 64.5672 125.185 64.5798H125.935V63.8393H126.666V64.5798H126.989V65.2444H126.666V67.5326C126.666 67.6971 126.673 67.849 126.685 67.9883C126.698 68.1212 126.739 68.251 126.809 68.3776H126.059C126.021 68.2953 125.992 68.2162 125.973 68.1402C125.954 68.0579 125.942 67.944 125.935 67.7984C125.84 68.0136 125.701 68.175 125.518 68.2826C125.34 68.3902 125.131 68.444 124.891 68.444C124.473 68.444 124.166 68.3079 123.97 68.0358C123.78 67.7636 123.685 67.3901 123.685 66.9154V66.2698C123.685 65.9407 123.745 65.6558 123.866 65.4153C123.992 65.1685 124.195 64.9912 124.473 64.8836C124.201 64.7887 124.002 64.6241 123.875 64.3899C123.748 64.1494 123.685 63.8614 123.685 63.5259V63.374C123.685 62.8424 123.812 62.4373 124.065 62.1588C124.324 61.8739 124.72 61.7315 125.252 61.7315H126.325V62.4056H125.271ZM125.242 65.2444C124.692 65.2634 124.416 65.5989 124.416 66.2508V66.8585C124.416 67.156 124.48 67.3838 124.606 67.5421C124.733 67.694 124.926 67.7699 125.185 67.7699C125.4 67.7699 125.575 67.7098 125.707 67.5895C125.847 67.4629 125.923 67.2699 125.935 67.0104V65.2444H125.242ZM143.808 61.7315C144.327 61.7315 144.698 61.8549 144.919 62.1018C145.141 62.3423 145.251 62.7094 145.251 63.2031V63.5165C145.251 63.8709 145.194 64.1589 145.08 64.3804C144.967 64.5956 144.764 64.7476 144.473 64.8362C144.796 64.9248 145.024 65.0925 145.156 65.3394C145.296 65.5862 145.365 65.8932 145.365 66.2603V66.8205C145.365 67.3205 145.242 67.7066 144.995 67.9788C144.748 68.2446 144.365 68.3776 143.846 68.3776H142.318V61.7315H143.808ZM143.628 64.5513C143.925 64.5513 144.147 64.4912 144.292 64.3709C144.444 64.2507 144.52 64.0165 144.52 63.6684V63.2791C144.52 62.9816 144.463 62.7632 144.349 62.624C144.242 62.4784 144.055 62.4056 143.789 62.4056H143.058V64.5513H143.628ZM143.846 67.7035C144.372 67.7035 144.634 67.4028 144.634 66.8015V66.2128C144.634 65.8394 144.558 65.5831 144.406 65.4438C144.261 65.2982 144.027 65.2254 143.704 65.2254H143.058V67.7035H143.846ZM153.432 67.0389L153.175 68.3776H152.492L153.764 61.7315H154.837L156.109 68.3776H155.369L155.112 67.0389H153.432ZM153.527 66.4027H155.008L154.258 62.567L153.527 66.4027ZM164.814 61.7315C165.34 61.7315 165.716 61.8613 165.944 62.1208C166.178 62.3803 166.295 62.7569 166.295 63.2506V63.7918C166.295 64.1589 166.229 64.4564 166.096 64.6843C165.963 64.9121 165.754 65.0704 165.469 65.159C165.773 65.2476 165.988 65.4122 166.115 65.6527C166.242 65.8869 166.305 66.1844 166.305 66.5452V67.58C166.305 67.7256 166.311 67.868 166.324 68.0073C166.337 68.1402 166.375 68.2636 166.438 68.3776H165.688C165.643 68.2826 165.612 68.1813 165.593 68.0737C165.574 67.9598 165.564 67.7921 165.564 67.5705V66.5262C165.564 66.1527 165.479 65.8964 165.308 65.7571C165.143 65.6115 164.906 65.5387 164.596 65.5387H164.074V68.3776H163.333V61.7315H164.814ZM164.624 64.8647C164.922 64.8647 165.153 64.8045 165.317 64.6843C165.482 64.5577 165.564 64.314 165.564 63.9532V63.3171C165.564 63.0132 165.504 62.7854 165.384 62.6335C165.27 62.4816 165.074 62.4056 164.795 62.4056H164.074V64.8647H164.624Z" fill="#E7E7E7"/>
<path d="M59.1655 28.3199C60.0443 27.337 61.1314 26.1457 62.4269 24.746C63.7224 23.3463 65.1212 21.8828 66.6234 20.3554C68.1255 18.8281 69.6924 17.3158 71.3239 15.8187C72.9555 14.3216 74.5349 12.9774 76.0623 11.7861C77.1834 10.8921 78.3621 10.0728 79.5908 9.33373C80.1705 8.99348 82.0054 7.79124 82.3633 7.56945C82.1057 7.50806 81.8417 7.4776 81.5769 7.47871C81.2898 7.46491 81.0025 7.50072 80.7275 7.58457C80.3332 7.72168 79.9506 7.89025 79.5833 8.08865C79.4295 8.17182 79.2682 8.26256 79.1095 8.35329C77.3146 9.3376 75.5823 10.4319 73.9225 11.6298C72.2136 12.8749 70.4493 14.2611 68.6296 15.7885C66.8099 17.3158 65.0456 18.8566 63.3368 20.4109C61.6414 21.9517 60.0174 23.4782 58.4648 24.9905C56.9123 26.5027 55.5403 27.8469 54.349 29.0231C50.36 33.0138 46.4618 36.7045 42.6543 40.0952C39.1377 43.2577 35.4417 46.2148 31.5847 48.9519C28.3712 51.2567 24.9357 53.2349 21.3292 54.8573C18.0661 56.2855 15.0063 56.9996 12.1499 56.9996C10.7334 57.0034 9.32247 56.8212 7.9534 56.4577C6.64974 56.1148 5.44242 55.4767 4.42483 54.5926C3.37091 53.6457 2.58138 52.441 2.13378 51.0968C1.61458 49.6484 1.45916 47.8354 1.66751 45.6578C1.91533 43.8205 2.49431 42.0434 3.37634 40.4128C4.36837 38.5375 5.56714 36.7791 6.95027 35.1704C8.43614 33.4236 10.0603 31.7994 11.8071 30.3136C13.5477 28.8196 15.3767 27.4318 17.2839 26.1574C20.7463 23.7494 24.4762 21.7508 28.3989 20.2017C30.1856 19.492 32.0147 18.8944 33.8758 18.4122C35.4097 18.001 36.9884 17.78 38.5763 17.7544C39.8003 17.7528 41.0222 17.8565 42.2284 18.0644C43.2975 18.2282 44.3246 18.598 45.2529 19.1532C46.046 19.6314 46.6807 20.3327 47.0776 21.1695C47.4658 21.9979 47.5044 23.0338 47.1936 24.2772C47.0923 24.8063 46.9095 25.3165 46.6517 25.7894C46.4425 26.1272 46.3996 26.3465 46.4954 26.4498C46.6517 26.6061 46.9239 26.4624 47.312 26.0238C47.7359 25.5145 48.0408 24.9169 48.2042 24.2747C48.5672 22.9305 48.5151 21.7778 48.048 20.8167C47.5759 19.8507 46.8345 19.0419 45.9132 18.4878C44.8608 17.8555 43.7017 17.4207 42.493 17.2049C41.2015 16.9485 39.888 16.8186 38.5713 16.8168C36.4888 16.84 34.411 17.0212 32.3559 17.3587C29.8546 17.768 27.4042 18.444 25.0468 19.375L24.2705 19.6094C22.7683 20.2294 21.2141 20.9545 19.6077 21.7845C17.9769 22.6263 16.395 23.5595 14.8694 24.5796C12.9652 25.9248 11.164 27.41 9.48076 29.0231C7.83971 30.5801 6.34396 32.2833 5.01208 34.1118C3.75316 35.8326 2.69765 37.6932 1.86662 39.6567C1.08488 41.4844 0.599899 43.4252 0.429991 45.4057C0.167869 47.995 0.374541 50.1315 1.05001 51.8151C1.62308 53.3561 2.58721 54.7215 3.84766 55.7772C5.05168 56.7405 6.45917 57.4171 7.96348 57.7557C9.46595 58.1112 11.0041 58.2939 12.5481 58.3001C16.047 58.2897 19.5266 57.7805 22.8818 56.7879C26.3515 55.7797 29.9641 54.0994 33.7195 51.7471C37.4749 49.3947 41.4378 46.2996 45.6082 42.4619C49.777 38.6309 54.2961 33.9177 59.1655 28.3224" fill="#E7E7E7"/>
<path d="M85.4736 5.39937C87.5176 4.33576 87.9007 3.81151 89.1962 3.04783C89.8566 2.65969 91.946 1.28355 92.3492 1.03151C92.0558 0.963466 91.7557 0.9288 91.4545 0.928172C91.1274 0.913587 90.8001 0.95449 90.4867 1.04915C90.0381 1.21077 89.6032 1.40799 89.1861 1.63893L88.6468 1.93885C88.2435 2.15813 87.815 2.39757 87.3689 2.65717C85.892 3.51663 84.2361 4.57268 82.7415 5.65897C82.7415 5.65897 84.4226 5.94126 85.4761 5.40693" fill="#E7E7E7"/>
<path d="M128.774 45.0226C129.446 44.2463 130.34 43.2625 131.456 42.0712C132.571 40.8799 133.815 39.5853 135.186 38.1873C136.557 36.7876 138.046 35.3241 139.652 33.7967C141.258 32.2694 142.89 30.7571 144.547 29.26C143.528 29.1446 142.496 29.2504 141.522 29.57C140.227 30.0892 138.051 31.6174 134.994 34.1546C136.497 32.7062 137.287 31.541 137.366 30.6588C137.444 29.7767 137.222 29.1819 136.706 28.8719C135.824 28.4047 134.593 28.3527 133.013 28.7156C131.21 29.1611 129.463 29.8132 127.809 30.6588C125.799 31.6635 123.876 32.8327 122.06 34.1546C120.195 35.487 118.441 36.9679 116.815 38.583C115.478 39.9209 114.28 41.3911 113.241 42.971C113.226 42.9962 113.216 43.0189 113.2 43.0416C112.807 43.3818 112.407 43.7196 111.998 44.0497C111.222 44.6983 110.471 45.32 109.745 45.9148C109.019 46.5096 108.397 46.991 107.88 47.3515C107.376 47.6615 106.766 48.0496 106.093 48.5184C105.434 48.9756 104.747 49.3906 104.036 49.761C103.399 50.0967 102.737 50.3823 102.055 50.6154C101.432 50.8221 100.966 50.8481 100.656 50.6935C100.404 50.5372 100.319 50.202 100.422 49.6854C100.525 49.1687 100.913 48.5209 101.589 47.7421C102.429 46.7363 103.323 45.7772 104.268 44.8689C105.328 43.8321 106.61 42.6408 108.114 41.2949C108.684 40.8278 109.331 40.2322 110.055 39.508C110.794 38.767 111.495 37.9889 112.155 37.1766C112.806 36.3778 113.403 35.5358 113.941 34.6562C114.416 33.9044 114.757 33.0765 114.95 32.2089C115.153 30.9168 114.453 30.0102 112.85 29.4894L111.683 29.0231C111.164 28.8189 110.904 28.5845 110.904 28.3249C110.904 27.9116 111.255 27.4453 111.955 26.9261C112.717 26.3667 113.508 25.8476 114.325 25.371C114.577 25.2173 114.998 24.9829 115.567 24.6729C116.137 24.3629 116.706 24.0251 117.276 23.6647C117.773 23.3548 118.252 23.0183 118.713 22.6565C119.103 22.344 119.217 22.1373 119.063 22.034C118.856 21.9298 118.365 21.8777 117.589 21.8777C117.065 21.8548 116.542 21.9074 116.033 22.034C115.491 22.1803 114.959 22.3622 114.441 22.5784C113.732 22.8708 113.066 23.2583 112.462 23.7302C111.653 24.3817 110.923 25.1252 110.287 25.9457C109.715 26.7018 109.432 27.3571 109.432 27.9267C107.724 29.7918 105.623 31.8921 103.131 34.2277C101.787 35.5232 100.363 36.8565 98.8594 38.2276C98.0327 38.9837 97.2388 39.6995 96.4751 40.3851C96.1726 40.6371 95.7668 40.995 95.2451 41.4512C94.5982 42.0225 93.9127 42.6181 93.1885 43.2382L91.0512 45.0654C90.3505 45.6603 89.7683 46.1417 89.302 46.5021C88.2754 47.2263 87.426 47.8211 86.7539 48.2865C86.2176 48.6681 85.6597 49.0182 85.0828 49.335C84.7324 49.5367 84.3521 49.6814 83.9562 49.7635C83.6437 49.8141 83.3235 49.7873 83.0237 49.6854C82.4037 49.4787 82.2096 48.6763 82.4415 47.2784C82.7221 45.6954 83.1249 44.1365 83.6462 42.6156C83.8025 42.1485 84.0226 41.5528 84.3066 40.8287C84.5905 40.1045 84.914 39.3408 85.2769 38.5376C85.6399 37.7344 86.0414 36.9439 86.4817 36.1659C86.8844 35.4427 87.3662 34.7664 87.9183 34.1496C88.4311 33.7732 88.9627 33.4233 89.5112 33.1011C90.204 32.6894 90.9173 32.3134 91.6485 31.9745C92.4375 31.6075 93.2562 31.3082 94.0958 31.0797C94.8909 30.8543 95.7179 30.7624 96.5431 30.8075C97.2535 30.8027 97.9425 31.0511 98.4863 31.5082C98.7964 31.7602 99.0786 32.0123 99.3408 32.2467C99.5028 32.4286 99.7211 32.551 99.9608 32.5945C100.48 32.3878 100.868 31.9241 101.128 31.1982C101.228 30.6087 101.118 30.0027 100.815 29.4868C100.504 28.9172 99.8835 28.5812 98.9526 28.4787C97.8878 28.3902 96.8161 28.5224 95.8046 28.8668C94.587 29.2525 93.4061 29.746 92.2761 30.3413C91.0831 30.963 89.8783 31.6493 88.6618 32.4004C87.4453 33.1515 86.3187 33.8639 85.282 34.5377C83.1077 36.0399 81.2594 37.3841 79.7371 38.5704C78.2147 39.7566 76.9243 40.7942 75.8657 41.6831C77.5762 39.6113 79.5085 37.4101 81.6627 35.0796C83.8168 32.7491 86.1347 30.3791 88.6165 27.9696C91.1016 25.5601 93.706 23.1648 96.4297 20.7839C99.1534 18.4029 101.937 16.1237 104.78 13.946C105.452 13.4789 106.372 12.8707 107.54 12.1213C108.573 11.4298 109.716 10.9184 110.92 10.609L110.998 10.4528C110.012 10.4528 109.105 10.4931 108.278 10.5687C107.458 10.644 106.65 10.8131 105.869 11.0728C105.076 11.3062 104.308 11.6186 103.578 12.0053C102.773 12.4187 102.086 12.8068 101.518 13.1698C100.277 13.9981 98.6804 15.1743 96.7296 16.6983C94.7788 18.2223 92.6785 19.9967 90.4286 22.0214C88.1754 24.0377 85.8314 26.2263 83.3967 28.5871C80.962 30.9478 78.6592 33.3447 76.4883 35.7778C74.5526 37.9184 72.9034 39.8843 71.5407 41.6755C70.1091 42.8685 68.5347 44.0884 66.8175 45.3351C64.512 47.0137 62.0539 48.4718 59.4755 49.6904C61.0093 48.7126 62.3625 47.4771 63.4754 46.0383C64.3772 44.8444 65.121 43.5389 65.6883 42.1544C66.1771 40.9681 66.5296 39.7302 66.7393 38.4645C66.9183 37.2976 67.0897 36.2768 67.2434 35.3947C67.3642 34.6976 67.5327 34.0096 67.7475 33.3355C67.9479 32.6456 68.2772 31.9999 68.7179 31.4326C69.4415 30.7431 70.2356 30.1315 71.087 29.6078C72.0952 28.9609 73.0664 28.3006 74.0006 27.6268C75.7095 26.4338 76.8487 25.3971 77.4183 24.5166C77.9879 23.6361 78.1173 23.0665 77.8064 22.8078C77.341 22.3944 76.6689 22.4339 75.7901 22.9262C74.9113 23.4185 73.7973 24.2856 72.4481 25.5273C71.5502 26.322 70.6946 27.1633 69.8848 28.0477C69.1085 28.9013 68.2541 29.8985 67.3216 31.0394C66.7635 31.708 66.1669 32.3434 65.5346 32.9423C64.8087 33.6396 64.019 34.3781 63.1654 35.1577C62.3118 35.9374 61.444 36.7011 60.5618 37.4488C59.6797 38.1999 58.8513 38.9123 58.0767 39.5861C57.4632 39.621 56.8773 39.8526 56.4057 40.2464C55.8109 40.685 55.1455 41.2168 54.4247 41.8393C53.9575 42.2527 53.3745 42.7568 52.6755 43.3516C51.9773 43.9464 51.4455 44.3749 51.0826 44.6319C50.2841 45.3161 49.5911 46.1144 49.0259 47.0011C48.5219 47.8076 48.2875 48.5134 48.2875 49.1384C48.2354 50.1751 48.5714 50.9136 49.2956 51.3539C50.1011 51.8155 51.0089 52.0693 51.937 52.0923C52.4398 52.1434 52.9465 52.1434 53.4493 52.0923C54.0978 52.0386 54.7968 51.9478 55.5462 51.8201C56.3199 51.6837 57.0849 51.5019 57.8373 51.2757C58.5808 51.0556 59.3077 50.7826 60.0124 50.4591C60.8416 50.0987 61.812 49.6047 62.926 48.9847C64.04 48.3647 65.1943 47.6514 66.384 46.8474C67.3568 46.1921 68.3524 45.4813 69.358 44.7403C67.8786 46.9885 66.9611 48.5386 66.6158 49.3728C66.3577 50.0318 66.3443 50.7615 66.578 51.4295C66.8099 52.1301 67.1594 52.4805 67.6265 52.4805C67.9677 51.8057 68.3569 51.1563 68.791 50.5372C69.2581 49.8651 69.7504 49.2174 70.2679 48.594C70.7854 47.9706 71.2643 47.3884 71.7045 46.8474C72.1456 46.303 72.5212 45.8392 72.8312 45.4864C73.4008 44.9167 74.2812 44.127 75.4725 43.1172C76.6639 42.1073 77.9073 41.0849 79.2027 40.0498C79.9269 39.4802 80.6133 38.9762 81.2619 38.5376C81.9071 38.0965 82.4919 37.6706 83.0086 37.2547C82.2373 38.4823 81.5631 39.7682 80.9922 41.1009C80.4339 42.3475 79.9664 43.6329 79.5934 44.947C79.3405 45.7505 79.1327 46.5676 78.9709 47.3943C78.8225 48.1222 78.7582 48.8647 78.7793 49.6072C78.7792 50.1964 78.9405 50.7743 79.2456 51.2782C79.5279 51.7168 80.0068 51.989 80.6822 52.0949C81.7156 52.2486 82.9355 51.9638 84.3318 51.2379C85.7281 50.512 87.51 49.3249 89.6977 47.6741C90.1615 47.3128 90.7176 46.86 91.3662 46.3156C92.0148 45.7712 92.6869 45.1881 93.3825 44.5664L95.0636 43.0769C95.1131 43.0596 95.1611 43.0385 95.2073 43.0138C95.7114 42.5551 96.2684 42.051 96.8607 41.5218C97.0069 41.3983 97.1631 41.2697 97.3043 41.1487C97.3396 41.1135 97.3572 41.0832 97.3875 41.0504C98.0503 40.4607 98.756 39.8381 99.5172 39.1677C101.197 37.6908 102.71 36.2793 104.054 34.9334C105.089 33.8967 106.086 32.8885 107.046 31.909C108.005 30.9294 108.929 29.9674 109.818 29.0231C110.178 29.4864 110.664 29.8364 111.217 30.0312C111.787 30.29 112.201 30.4715 112.459 30.5757C112.586 30.6274 112.697 30.7127 112.779 30.8224C112.861 30.932 112.912 31.0619 112.926 31.1982C112.926 31.4049 112.704 31.7552 112.265 32.2467C111.827 32.7382 111.28 33.3078 110.635 33.9555C109.989 34.6033 109.261 35.2888 108.457 36.0147C107.653 36.7406 106.867 37.411 106.088 38.031C103.603 40.2053 101.7 42.2124 100.379 44.0522C99.0585 45.8921 98.3721 47.6144 98.32 49.2191C98.2787 49.577 98.3088 49.9395 98.4088 50.2857C98.5087 50.6318 98.6765 50.9546 98.9022 51.2354C99.3408 51.7546 100.004 52.0142 100.883 52.0142C101.763 52.0142 102.9 51.6261 104.263 50.8473C105.627 50.0685 106.995 49.2166 108.341 48.284C109.291 47.5934 110.423 46.7214 111.716 45.688C111.463 46.2281 111.244 46.7837 111.061 47.3515C110.647 48.6999 110.594 49.8114 110.904 50.6935C111.214 51.5757 112.046 52.0142 113.392 52.0142C114.634 52.0142 116.23 51.3925 118.181 50.1491C120.404 48.6938 122.541 47.11 124.58 45.4057C123.963 46.2676 123.49 47.2245 123.181 48.2386C122.974 48.9085 122.961 49.6233 123.143 50.3003C123.295 50.8337 123.641 51.2907 124.114 51.5807C124.633 51.8795 125.224 52.0279 125.823 52.0092C126.456 51.9804 127.078 51.8217 127.647 51.5429C128.409 51.1989 129.149 50.8092 129.863 50.3759C130.639 49.9088 131.404 49.4047 132.156 48.8637C132.909 48.3227 133.569 47.8186 134.135 47.3515C135.067 46.5752 136.22 45.604 137.593 44.4379C138.966 43.2718 140.222 42.1972 141.361 41.2143C141.499 41.0791 141.628 40.936 141.749 40.7858C141.801 40.6976 141.829 40.5971 141.829 40.4947C141.829 40.3923 141.801 40.2918 141.749 40.2036C141.734 40.1585 141.709 40.1172 141.676 40.0824C141.643 40.0476 141.604 40.0201 141.56 40.0018C141.515 39.9835 141.468 39.9747 141.42 39.976C141.373 39.9773 141.326 39.9888 141.283 40.0095C141.111 40.0663 140.953 40.1591 140.819 40.2817C139.883 41.1118 138.73 42.1199 137.361 43.3062C135.992 44.4925 134.684 45.5805 133.437 46.5701C132.867 46.9868 132.219 47.4657 131.494 48.0068C130.768 48.5478 130.043 49.0401 129.318 49.4837C128.673 49.8826 127.999 50.2331 127.302 50.5322C126.68 50.7842 126.213 50.8422 125.903 50.6885C125.33 50.428 125.369 49.7937 126.019 48.7856C126.67 47.7774 127.589 46.5172 128.777 45.005M55.3572 49.2191C53.8013 50.0491 52.4285 50.4633 51.2389 50.4616C50.7643 50.4597 50.2975 50.3402 49.8804 50.1138C49.4401 49.8786 49.2452 49.477 49.2956 48.9091C49.4015 47.9261 50.0232 47.0196 51.1607 46.1895C51.7329 45.7762 52.4033 45.3225 53.1771 44.8285C53.9508 44.3345 54.5759 43.9111 55.0396 43.5482C57.1652 42.204 58.3313 41.142 58.5379 40.3624C60.0905 39.0702 61.6028 37.7756 63.0747 36.4784C64.4128 35.3209 65.6717 34.0747 66.8427 32.7482C66.5288 33.7948 66.1569 34.823 65.7287 35.8282C65.2347 36.9943 64.6777 38.1604 64.0576 39.3265C63.4376 40.4926 62.7655 41.6192 62.0413 42.7064C61.4118 43.6594 60.709 44.5619 59.9393 45.4057C58.4371 47.1145 56.9098 48.3831 55.3572 49.2115M123.66 44.6269C122.234 45.8817 120.743 47.0595 119.191 48.1555C118.075 48.956 116.907 49.6826 115.696 50.3306C114.738 50.8347 114.078 50.9909 113.715 50.8347C113.248 50.628 113.12 50.1894 113.326 49.514C113.638 48.6423 114.07 47.8186 114.609 47.0667C115.37 45.961 116.196 44.9014 117.082 43.8935C118.09 42.729 119.191 41.5772 120.384 40.438C124.584 36.5011 128.067 33.6136 130.833 31.7754C133.599 29.9372 135.347 29.3028 136.078 29.8725C136.441 30.1825 136.401 30.7395 135.962 31.541C135.41 32.5003 134.759 33.3992 134.019 34.2227C133.164 35.2056 132.232 36.2138 131.224 37.2472C130.216 38.2805 129.322 39.1896 128.542 39.9742C126.884 41.6831 125.252 43.2365 123.648 44.6345" fill="#E7E7E7"/>
<path d="M263.454 32.786C264.513 31.5711 265.509 30.4193 266.443 29.3305C265.53 29.2629 264.615 29.4515 263.802 29.8749C263.394 30.0985 263.016 30.372 262.675 30.689C262.234 31.0771 261.756 31.493 261.239 31.9316C260.722 32.3701 260.231 32.8263 259.762 33.2926L258.597 34.457L258.363 34.3007C259.007 33.6562 259.557 32.924 259.996 32.1256C260.27 31.6173 260.454 31.0657 260.541 30.4949C260.608 30.1255 260.553 29.7443 260.384 29.4086C260.258 29.1788 260.069 28.9893 259.84 28.8617C259.012 28.4517 257.782 28.4265 256.15 28.7861C254.306 29.2255 252.52 29.8776 250.827 30.7293C248.798 31.7287 246.85 32.884 245 34.1848C243.11 35.4897 241.339 36.9589 239.707 38.5753C238.38 39.9011 237.208 41.3732 236.214 42.9634C236.115 43.1222 236.035 43.2734 235.944 43.4271L234.893 44.3244C234.167 44.9469 233.419 45.5669 232.64 46.1895C231.861 46.812 231.128 47.3539 230.465 47.8202C229.733 48.3609 228.968 48.8543 228.174 49.2971C227.423 49.7105 226.723 50.06 226.074 50.3456C225.538 50.5924 224.979 50.7874 224.406 50.9278C223.939 51.0337 223.627 51.006 223.473 50.8497C223.058 50.5389 223.019 50.0474 223.357 49.3753C223.695 48.7032 224.562 47.6412 225.958 46.1895C226.787 45.309 227.719 44.3639 228.756 43.354C229.793 42.3442 230.934 41.2697 232.181 40.1304C233.114 39.3004 234.15 38.3157 235.289 37.1765C236.345 36.1365 237.307 35.0055 238.165 33.7967C238.941 32.6826 239.355 31.6602 239.407 30.7293C239.459 29.7985 238.864 29.1264 237.62 28.713C236.844 28.4022 235.626 28.5962 233.968 29.2952C232.138 30.0833 230.369 31.0058 228.675 32.0551C226.81 33.1943 224.972 34.4108 223.161 35.7046C221.349 36.9984 219.903 38.1108 218.823 39.0416C219.703 38.0587 220.636 37.0614 221.621 36.0499C222.605 35.0384 223.576 34.0932 224.534 33.2145C225.492 32.334 226.411 31.5182 227.292 30.7671C228.054 30.1064 228.858 29.4968 229.701 28.9424C228.708 28.9432 227.718 29.0471 226.747 29.2524C225.871 29.4177 225.03 29.7332 224.262 30.1849C223.098 30.9849 221.983 31.8534 220.922 32.786C219.584 33.9434 218.312 35.1762 217.114 36.4784C215.93 37.7209 214.798 38.9786 213.707 40.259C213.616 40.3139 213.532 40.3781 213.455 40.4505C212.366 41.3831 211.148 42.445 209.802 43.6363C208.457 44.8276 207.162 45.9148 205.918 46.8977C205.448 47.2472 204.867 47.674 204.174 48.1781C203.482 48.6822 202.783 49.135 202.077 49.5366C201.451 49.9123 200.802 50.249 200.134 50.5447C199.539 50.7968 199.086 50.8548 198.776 50.701C198.204 50.4406 198.269 49.7928 198.97 48.7578C199.67 47.7227 200.616 46.4541 201.805 44.952C202.477 44.1219 203.358 43.0986 204.447 41.8821C205.535 40.6656 206.765 39.3449 208.136 37.92C209.509 36.4969 210.999 35.0073 212.605 33.4514C214.211 31.8954 215.843 30.342 217.5 28.7911C216.771 28.7531 216.04 28.8056 215.325 28.9474C214.392 29.1012 213.717 29.3078 213.308 29.5674C212.36 30.1552 211.452 30.8043 210.589 31.5107C209.554 32.339 208.492 33.2321 207.403 34.1898C206.314 35.1476 205.248 36.1306 204.205 37.1387C203.17 38.1469 202.264 39.0399 201.488 39.8179C201.175 40.1304 200.709 40.5942 200.089 41.2167C199.469 41.8393 198.781 42.4996 198.03 43.1978C197.279 43.8959 196.553 44.5714 195.855 45.2141C195.156 45.8568 194.572 46.3936 194.105 46.807C193.536 47.2237 192.889 47.69 192.165 48.2058C191.463 48.7087 190.736 49.1756 189.987 49.6046C189.351 49.9759 188.689 50.301 188.006 50.5775C187.414 50.8094 186.958 50.8472 186.647 50.6934C186.078 50.433 186.13 49.7853 186.804 48.7502C187.478 47.7152 188.409 46.4466 189.599 44.9444C190.271 44.1144 191.191 43.0911 192.359 41.8746C193.527 40.658 194.834 39.35 196.28 37.9503C197.731 36.5523 199.297 35.1022 200.981 33.6001C202.665 32.0979 204.361 30.6478 206.07 29.2499C205.276 29.2711 204.484 29.3486 203.701 29.4817C202.854 29.5904 202.029 29.8266 201.253 30.1824C200.477 30.6478 199.558 31.2695 198.496 32.0475C197.434 32.8255 196.359 33.6538 195.272 34.5326C194.183 35.4148 193.122 36.3213 192.087 37.2521C191.051 38.183 190.145 39.0374 189.367 39.8154C188.548 40.695 187.814 41.5545 187.149 42.3988C186.897 42.5576 186.663 42.7088 186.413 42.8449C185.999 43.0832 185.556 43.2662 185.095 43.3893C184.93 43.4441 184.756 43.4655 184.583 43.452C184.41 43.4386 184.241 43.3907 184.087 43.3112C183.971 43.2542 183.873 43.166 183.804 43.0566C183.735 42.9471 183.697 42.8206 183.696 42.6912C183.698 42.3702 183.765 42.053 183.893 41.7586C184.019 41.4513 184.189 41.1636 184.397 40.9042C184.567 40.6868 184.748 40.479 184.941 40.2817C185.935 39.2325 186.856 38.1168 187.698 36.9421C188.48 35.8768 189.144 34.7301 189.68 33.5219C190.1 32.6176 190.35 31.6436 190.418 30.6487C190.454 30.2876 190.38 29.9241 190.207 29.6051C190.034 29.2861 189.77 29.0263 189.448 28.8592C188.618 28.4484 187.477 28.3551 186.027 28.5895C184.388 28.8813 182.795 29.3898 181.289 30.1018C179.434 30.9598 177.662 31.9875 175.996 33.1716C174.164 34.4557 172.448 35.8978 170.867 37.4815C169.427 38.9447 168.151 40.5606 167.061 42.3005C166.88 42.5954 166.724 42.8802 166.557 43.1675C166.167 43.4927 165.761 43.8253 165.345 44.1631C164.517 44.8352 163.713 45.4829 162.936 46.1063C162.158 46.7297 161.485 47.2472 160.919 47.6589C159.532 48.6281 158.079 49.4981 156.569 50.2625C155.426 50.8069 154.649 50.9236 154.238 50.6128C153.824 50.3524 153.863 49.7567 154.354 48.8258C155.028 47.6165 155.794 46.4605 156.645 45.3678C157.681 43.9967 158.925 42.508 160.375 40.9017C161.825 39.2953 163.334 37.6882 164.901 36.0801C169.252 31.6274 173.368 27.5881 177.251 23.9621C181.01 20.441 184.953 17.1211 189.062 14.0165C189.938 13.3077 190.872 12.6737 191.855 12.1212C192.904 11.4858 194.026 10.9781 195.197 10.609L195.275 10.4527C194.368 10.3995 193.458 10.4256 192.555 10.5308C191.817 10.6148 191.088 10.7709 190.38 10.9971C188.708 11.5703 187.115 12.3537 185.639 13.3285C184.295 14.2073 182.754 15.333 181.017 16.7058C179.28 18.0786 177.431 19.6463 175.472 21.4089C173.503 23.1715 171.457 25.0618 169.335 27.0798C167.213 29.0978 165.112 31.1696 163.034 33.2951C160.549 35.7802 158.464 38.0335 156.781 40.0548C155.408 41.6479 154.145 43.332 153 45.0956C151.864 46.8565 151.295 48.3587 151.291 49.6021C151.291 50.8447 151.942 51.6739 153.234 52.0897C154.117 52.3418 155.266 52.1276 156.692 51.4269C158.248 50.6507 159.741 49.7549 161.159 48.7477C161.885 48.2319 162.675 47.6362 163.53 46.9607C164.203 46.4314 164.876 45.8845 165.547 45.3401C165.376 45.7803 165.233 46.2307 165.118 46.6885C164.807 48.0092 164.833 49.1493 165.196 50.1087C165.559 51.0681 166.31 51.7024 167.45 52.0116C168.382 52.2183 169.483 52.0503 170.751 51.5075C172.14 50.8982 173.466 50.1572 174.713 49.2946C176.127 48.3309 177.489 47.2936 178.794 46.187C180.138 45.0477 181.355 43.9858 182.443 43.0012C182.508 43.2929 182.627 43.5699 182.794 43.8178C183.003 44.1216 183.324 44.3307 183.686 44.4C184.347 44.5894 185.049 44.5772 185.702 44.3647C184.928 45.4674 184.332 46.6855 183.938 47.9739C183.525 49.1669 183.486 50.1381 183.822 50.8875C184.16 51.6436 184.974 52.0141 186.269 52.0141C186.937 51.9929 187.595 51.8476 188.21 51.5857C188.982 51.279 189.723 50.9019 190.426 50.459C191.182 49.9928 191.913 49.5013 192.641 48.9846C193.369 48.4679 194.04 47.9765 194.657 47.5077C194.967 47.2556 195.368 46.9254 195.862 46.5348C196.392 46.1117 196.897 45.6581 197.374 45.1763C196.286 47.0414 195.807 48.6208 195.938 49.9146C196.069 51.2085 196.988 51.9083 198.695 52.0141C199.313 51.9906 199.92 51.845 200.482 51.5857C201.206 51.2749 201.907 50.9119 202.579 50.4994C203.305 50.0591 204.03 49.5668 204.754 49.0224L206.77 47.5102C207.184 47.1976 207.688 46.7961 208.283 46.3054C208.825 45.8568 209.404 45.3603 210.012 44.826C208.922 46.2935 207.941 47.8393 207.078 49.4509C206.962 49.7086 206.896 49.9855 206.881 50.2675C206.857 50.604 206.871 50.9422 206.922 51.2757C206.963 51.574 207.055 51.863 207.194 52.1301C207.247 52.238 207.33 52.3284 207.434 52.3904C207.537 52.4525 207.656 52.4838 207.776 52.4804C208.811 51.1849 209.679 50.097 210.38 49.2165C211.08 48.336 211.752 47.5203 212.396 46.7692C213.045 46.0181 213.77 45.241 214.571 44.4378C215.373 43.6346 216.396 42.6374 217.641 41.4461C219.219 40.0173 220.88 38.6817 222.614 37.4462C224.581 36.0213 226.514 34.7267 228.411 33.5623C230.068 32.5248 231.78 31.5782 233.54 30.7268C235.067 30.0009 236.063 29.7161 236.529 29.8724C236.892 30.0261 236.829 30.4294 236.335 31.0746C235.701 31.8726 235 32.6139 234.238 33.2901C233.33 34.1201 232.373 34.9602 231.364 35.8105C230.356 36.6607 229.516 37.3992 228.844 38.0259C228.068 38.7518 227.368 39.3995 226.745 39.9691C226.125 40.5387 225.552 41.0957 225.036 41.6402C224.519 42.1846 224.028 42.7265 223.561 43.2709C223.064 43.8549 222.597 44.464 222.162 45.0956C220.97 46.9103 220.465 48.4646 220.65 49.7584C220.829 51.0539 221.439 51.8276 222.475 52.0897C223.355 52.2931 224.559 52.0982 226.087 51.505C227.735 50.8435 229.29 49.969 230.712 48.904C231.972 48.0395 233.313 47.0338 234.689 45.9072C234.49 46.3783 234.316 46.8595 234.167 47.3489C233.779 48.6973 233.754 49.8088 234.089 50.6909C234.424 51.5731 235.243 52.0116 236.536 52.0116C237.78 52.0116 239.628 51.1824 242.081 49.524C244.534 47.8656 247.475 45.4056 250.903 42.1442L251.059 42.3005C249.659 43.8531 248.118 45.5098 246.437 47.2707C244.755 49.0317 243.045 50.7674 241.307 52.4779C239.573 54.1867 237.865 55.8183 236.181 57.3725C234.497 58.9268 232.93 60.271 231.48 61.4052C229.718 62.8015 227.827 64.1608 225.807 65.4832C223.788 66.799 221.683 67.9778 219.506 69.0117C217.344 70.04 215.095 70.8718 212.784 71.4968C210.518 72.1139 208.179 72.4275 205.83 72.4294C204.287 72.4244 202.75 72.2417 201.248 71.885C199.743 71.5404 198.292 70.9918 196.936 70.2543C195.647 69.5536 194.49 68.6333 193.518 67.5348C192.566 66.4605 191.933 65.1414 191.691 63.7264C191.588 63.4224 191.511 63.1105 191.459 62.7939C191.406 62.4839 191.277 62.3806 191.071 62.4839C190.552 62.5343 190.421 63.2064 190.68 64.5002C190.885 65.9412 191.506 67.2911 192.467 68.3842C193.494 69.5569 194.717 70.5427 196.081 71.2977C197.579 72.1284 199.187 72.7427 200.858 73.1225C202.614 73.5461 204.414 73.7634 206.221 73.7703C210.78 73.7703 215.389 72.8764 220.05 71.0885C224.711 69.3007 229.555 66.4653 234.581 62.5822C236.771 60.9284 238.874 59.1618 240.882 57.2893C243.004 55.3217 244.985 53.3794 246.825 51.4622C248.665 49.545 250.283 47.7967 251.679 46.2172C253.079 44.6394 254.087 43.4868 254.703 42.7592C255.374 41.9829 256.216 41.0403 257.189 39.9238C258.161 38.8072 259.205 37.6554 260.258 36.428L263.444 32.7759M183.353 38.1091C183.003 38.6938 182.729 39.3205 182.537 39.9742C180.774 41.7872 179.104 43.4187 177.526 44.8688C176.138 46.1578 174.687 47.3758 173.176 48.5183C172.121 49.3383 170.989 50.054 169.796 50.6556C168.864 51.0975 168.165 51.1883 167.699 50.9278C167.18 50.617 166.985 50.1129 167.114 49.4156C167.327 48.5341 167.709 47.7027 168.241 46.9683C168.969 45.8985 169.76 44.8734 170.61 43.8984C171.568 42.7878 172.617 41.636 173.758 40.443C175.517 38.5779 177.226 36.9203 178.885 35.4702C180.319 34.1962 181.824 33.0031 183.391 31.8963C184.479 31.1082 185.652 30.4438 186.887 29.9152C187.873 29.5271 188.573 29.4884 188.986 29.7993C189.095 29.8934 189.174 30.0163 189.215 30.1538C189.256 30.2912 189.257 30.4375 189.218 30.5756C189.151 30.9899 189.033 31.3945 188.868 31.7803C188.679 32.2356 188.459 32.677 188.208 33.101C187.998 33.4656 187.765 33.8159 187.509 34.1495C186.802 34.3467 186.151 34.7056 185.607 35.198C185.162 35.5835 184.759 36.0134 184.402 36.4809C184.021 37.0036 183.671 37.5481 183.353 38.1116M256.926 34.1873C256.071 35.1955 255.139 36.2188 254.129 37.2572C253.119 38.2956 252.226 39.2021 251.45 39.9767C249.791 41.6855 248.16 43.2389 246.555 44.6369C244.95 46.0349 243.474 47.2111 242.127 48.1655C241.017 48.9765 239.849 49.7036 238.631 50.3406C237.648 50.8447 236.972 51.0009 236.614 50.8447C236.097 50.638 235.942 50.1852 236.148 49.4862C236.452 48.5988 236.884 47.7607 237.431 46.9985C238.196 45.8919 239.038 44.8408 239.951 43.8531C240.985 42.7138 242.098 41.5746 243.291 40.4354C247.492 36.4985 250.962 33.5849 253.703 31.6946C256.443 29.8043 258.23 29.1961 259.064 29.8699C259.424 30.1799 259.374 30.7243 258.907 31.5006C258.319 32.4445 257.656 33.3404 256.926 34.1798" fill="#E7E7E7"/>
<path d="M281.672 28.7862C281 28.4233 279.964 28.4233 278.564 28.7862C276.963 29.2276 275.413 29.8394 273.942 30.611C272.127 31.5431 270.384 32.6079 268.727 33.7968C267.011 35.0079 265.389 36.3457 263.873 37.7992C262.769 38.8362 261.757 39.9671 260.848 41.1791C260.159 42.0975 259.548 43.0721 259.021 44.0927C258.64 44.826 258.328 45.593 258.088 46.3837C257.934 46.8742 257.842 47.3823 257.816 47.8959C257.662 49.2956 257.946 50.318 258.671 50.9633C259.406 51.6146 260.333 52.0106 261.312 52.0924C262.814 52.1932 264.433 51.8689 266.169 51.1195C267.801 50.4268 269.352 49.5544 270.791 48.5185C272.5 47.3255 274.08 46.1207 275.53 44.9042C276.98 43.6877 278.378 42.4838 279.726 41.2925C279.883 41.1367 280.026 40.9681 280.155 40.7884C280.217 40.7019 280.247 40.5964 280.24 40.49C280.232 40.3836 280.188 40.2832 280.114 40.2062C280.011 40.0499 279.842 40.0272 279.61 40.1281C279.394 40.2217 279.196 40.3532 279.025 40.5162C277.94 41.5546 276.49 42.824 274.675 44.3245C272.921 45.7803 271.08 47.1271 269.161 48.3572C267.764 49.2922 266.248 50.0364 264.654 50.5701C263.256 51.012 262.194 51.1027 261.468 50.8423C260.744 50.5314 260.498 49.9232 260.73 49.0175C261.074 47.8792 261.599 46.8036 262.285 45.8317C263.186 44.4902 264.185 43.2173 265.274 42.0234C266.467 40.7044 267.658 39.4744 268.848 38.3335C269.211 38.5856 269.806 38.6839 270.635 38.6057C271.559 38.5076 272.471 38.3125 273.354 38.0235C274.349 37.71 275.322 37.3337 276.268 36.8969C277.09 36.5321 277.882 36.104 278.637 35.6165C279.371 35.0911 280.059 34.506 280.696 33.8674C281.279 33.2997 281.787 32.6603 282.209 31.9645C282.549 31.4331 282.712 30.8075 282.675 30.1775C282.625 29.6079 282.287 29.1416 281.667 28.7787M280.772 31.3419C279.904 32.4537 278.901 33.4528 277.785 34.316C276.239 35.5384 274.525 36.5323 272.697 37.2674C271.067 37.8891 269.94 38.0966 269.317 37.8899C270.249 36.9574 271.351 35.9601 272.621 34.8982C273.891 33.8363 275.121 32.8777 276.311 32.0224C277.324 31.2835 278.374 30.5962 279.456 29.9633C280.361 29.4466 280.946 29.2903 281.206 29.497C281.619 29.8078 281.476 30.4295 280.777 31.3621" fill="#E7E7E7"/>
</svg>
