<svg width="24" height="22" viewBox="0 0 24 22" fill="none" xmlns="http://www.w3.org/2000/svg">
<path d="M12.9035 1.53004L12.9035 1.53004L14.8627 7.55983H21.2028C22.1231 7.55983 22.5057 8.73746 21.7612 9.2784L21.2616 8.59073L21.7612 9.2784L16.6319 13.005L18.5911 19.0348C18.8755 19.9101 17.8738 20.6378 17.1292 20.0969L12 16.3703L6.87075 20.0969C6.12623 20.6379 5.12447 19.91 5.40886 19.0348L7.36805 13.005L2.23881 9.2784C1.49428 8.73746 1.87692 7.55983 2.7972 7.55983H9.1373L11.0965 1.53004L11.9026 1.79195L12.9035 1.53004ZM12.9035 1.53004C12.6191 0.654812 11.3809 0.654781 11.0965 1.53004L12.9035 1.53004ZM16.1911 13.3253L16.1916 13.325C16.1914 13.3251 16.1913 13.3252 16.1911 13.3253L16.1911 13.3253ZM5.87152 18.7216C5.87181 18.7214 5.87211 18.7212 5.8724 18.721L5.87152 18.7216Z" stroke="#E7E7E7" stroke-width="1.7"/>
</svg>
