<svg width="20" height="20" viewBox="0 0 20 20" fill="none" xmlns="http://www.w3.org/2000/svg">
<path d="M8.44607 4.80446C6.48272 4.80446 4.51938 4.80446 2.55604 4.80446C1.96045 4.80446 1.70811 5.05797 1.70753 5.65472C1.70694 6.3249 1.71161 6.99567 1.7052 7.66585C1.7017 8.04407 1.44761 8.33312 1.09737 8.38149C0.767523 8.42695 0.437677 8.2154 0.342103 7.8873C0.318209 7.80513 0.312964 7.71539 0.312382 7.62914C0.310051 6.93681 0.30772 6.24448 0.311799 5.55274C0.319375 4.32135 1.21917 3.3965 2.44822 3.41515C3.1965 3.42622 3.87367 3.16397 4.57008 2.97923C8.16226 2.02583 11.7504 1.05377 15.3402 0.0904563C16.6048 -0.248714 17.6952 0.385919 18.0361 1.65868C18.6649 4.00491 19.2937 6.35113 19.9173 8.6991C20.2372 9.90484 19.6037 11.0039 18.4021 11.339C17.8566 11.4911 17.31 11.6392 16.761 11.7773C16.627 11.8111 16.592 11.8694 16.5914 12.0011C16.5891 12.4445 16.6211 12.8962 16.5524 13.3304C16.3939 14.3356 15.5634 15.0344 14.5488 15.0664C14.1275 15.0792 13.7055 15.0752 13.2836 15.0687C12.8582 15.0623 12.5592 14.7575 12.5662 14.3531C12.5732 13.9568 12.8681 13.6771 13.2918 13.6724C13.67 13.6684 14.0482 13.673 14.4258 13.6707C14.9177 13.6678 15.1974 13.3898 15.1974 12.8974C15.1986 10.4561 15.1986 8.01551 15.1974 5.5743C15.1974 5.08303 14.9177 4.80505 14.4229 4.80446C12.431 4.8033 10.4386 4.80446 8.44607 4.80446ZM16.5949 10.3734C17.0891 10.2423 17.5518 10.1228 18.0122 9.99634C18.5011 9.8623 18.694 9.52605 18.5629 9.03477C17.9411 6.70254 17.3175 4.37088 16.6934 2.03923C16.5436 1.47977 16.2248 1.30028 15.6666 1.45005C13.5086 2.03049 11.35 2.61034 9.19143 3.19078C8.97464 3.24906 8.75843 3.31083 8.54223 3.37085C8.54456 3.38251 8.54689 3.39358 8.54922 3.40524C8.62847 3.40524 8.70831 3.40524 8.78757 3.40524C10.6553 3.40524 12.5237 3.40349 14.3915 3.40582C15.705 3.40699 16.5926 4.29804 16.5937 5.61568C16.5955 7.10873 16.5943 8.60178 16.5943 10.0948C16.5949 10.1741 16.5949 10.2533 16.5949 10.3734Z" fill="#1D1D1D"/>
<path d="M5.81603 7.91639C9.02242 7.91988 11.6227 10.5289 11.6262 13.7464C11.6297 16.9703 9.01601 19.5863 5.79913 19.5787C2.591 19.5712 -0.0063986 16.9557 1.18404e-05 13.7406C0.00642228 10.5237 2.61372 7.91289 5.81603 7.91639ZM10.2293 13.7598C10.2346 11.3098 8.26074 9.32085 5.81836 9.31561C3.38939 9.31037 1.40914 11.2865 1.39632 13.7272C1.3835 16.1765 3.35617 18.1725 5.79622 18.1795C8.24093 18.1865 10.2241 16.2098 10.2293 13.7598Z" fill="#1D1D1D"/>
<path d="M6.50833 11.1846C6.75543 11.1846 6.9728 11.1817 7.18959 11.1852C7.59811 11.1922 7.90523 11.4935 7.90581 11.8822C7.90639 12.2709 7.60044 12.578 7.1925 12.5821C6.6109 12.5874 6.0293 12.5856 5.44711 12.5827C5.27753 12.5815 5.12426 12.6136 5.12076 12.8135C5.11727 13.0151 5.2717 13.0542 5.44012 13.0542C5.74549 13.0542 6.05144 13.0483 6.35623 13.0594C7.15928 13.0891 7.80965 13.7069 7.8994 14.5146C7.98507 15.2856 7.47922 16.0368 6.72979 16.2506C6.66102 16.2704 6.59109 16.2873 6.52465 16.3042C6.46113 16.9593 6.26007 17.2314 5.83291 17.2483C5.40865 17.2652 5.18487 16.989 5.09163 16.3107C4.8795 16.3107 4.66329 16.3142 4.44708 16.3101C4.02982 16.3019 3.72504 16.0146 3.71863 15.6282C3.71163 15.229 4.01292 14.9225 4.44126 14.9149C4.95701 14.9056 5.47334 14.9109 5.98967 14.9103C6.06252 14.9103 6.13536 14.9103 6.20762 14.9126C6.37371 14.9173 6.50717 14.8648 6.50367 14.676C6.50076 14.5006 6.37313 14.4516 6.21578 14.4528C5.92498 14.4545 5.6336 14.4604 5.34338 14.4505C4.56597 14.4242 3.93483 13.9242 3.76583 13.2098C3.59333 12.4813 3.91618 11.7441 4.56422 11.3869C4.69301 11.3158 5.10794 10.8379 5.16214 10.6992C5.28219 10.3892 5.59397 10.2137 5.93489 10.2656C6.23385 10.3111 6.48153 10.5815 6.50717 10.8962C6.51474 10.9818 6.50833 11.0692 6.50833 11.1846Z" fill="#1D1D1D"/>
</svg>
