<svg width="20" height="21" viewBox="0 0 20 21" fill="none" xmlns="http://www.w3.org/2000/svg">
<path d="M8.44607 5.51503C6.48272 5.51503 4.51938 5.51503 2.55604 5.51503C1.96045 5.51503 1.70811 5.76854 1.70753 6.36529C1.70694 7.03547 1.71161 7.70624 1.7052 8.37642C1.7017 8.75464 1.44761 9.04369 1.09737 9.09206C0.767523 9.13752 0.437677 8.92597 0.342103 8.59787C0.318209 8.5157 0.312964 8.42596 0.312382 8.33971C0.310051 7.64738 0.30772 6.95505 0.311799 6.26331C0.319375 5.03192 1.21917 4.10707 2.44822 4.12572C3.1965 4.13679 3.87367 3.87454 4.57008 3.68981C8.16226 2.7364 11.7504 1.76434 15.3402 0.801028C16.6048 0.461857 17.6952 1.09649 18.0361 2.36925C18.6649 4.71548 19.2937 7.0617 19.9173 9.40967C20.2372 10.6154 19.6037 11.7145 18.4021 12.0496C17.8566 12.2017 17.31 12.3497 16.761 12.4878C16.627 12.5216 16.592 12.5799 16.5914 12.7116C16.5891 13.1551 16.6211 13.6068 16.5524 14.0409C16.3939 15.0462 15.5634 15.7449 14.5488 15.777C14.1275 15.7898 13.7055 15.7857 13.2836 15.7793C12.8582 15.7729 12.5592 15.4681 12.5662 15.0637C12.5732 14.6674 12.8681 14.3877 13.2918 14.383C13.67 14.3789 14.0482 14.3836 14.4258 14.3813C14.9177 14.3783 15.1974 14.1004 15.1974 13.6079C15.1986 11.1667 15.1986 8.72608 15.1974 6.28487C15.1974 5.7936 14.9177 5.51562 14.4229 5.51503C12.431 5.51387 10.4385 5.51503 8.44607 5.51503ZM16.5949 11.084C17.0891 10.9528 17.5518 10.8334 18.0122 10.7069C18.5011 10.5729 18.694 10.2366 18.5629 9.74534C17.9411 7.41311 17.3175 5.08145 16.6934 2.7498C16.5436 2.19035 16.2248 2.01085 15.6666 2.16062C13.5086 2.74106 11.35 3.32091 9.19143 3.90135C8.97464 3.95963 8.75843 4.0214 8.54222 4.08143C8.54456 4.09308 8.54689 4.10415 8.54922 4.11581C8.62847 4.11581 8.70831 4.11581 8.78757 4.11581C10.6553 4.11581 12.5237 4.11406 14.3915 4.11639C15.705 4.11756 16.5926 5.00861 16.5937 6.32625C16.5955 7.8193 16.5943 9.31235 16.5943 10.8054C16.5949 10.8847 16.5949 10.9639 16.5949 11.084Z" fill="#E7E7E7"/>
<path d="M5.81603 8.62696C9.02242 8.63045 11.6227 11.2395 11.6262 14.457C11.6297 17.6808 9.01601 20.2969 5.79913 20.2893C2.591 20.2817 -0.0063986 17.6663 1.18404e-05 14.4511C0.00642228 11.2343 2.61372 8.62346 5.81603 8.62696ZM10.2293 14.4704C10.2346 12.0204 8.26074 10.0314 5.81836 10.0262C3.38939 10.0209 1.40914 11.9971 1.39632 14.4377C1.3835 16.8871 3.35617 18.8831 5.79622 18.8901C8.24093 18.8971 10.2241 16.9203 10.2293 14.4704Z" fill="#E7E7E7"/>
<path d="M6.50833 11.8952C6.75543 11.8952 6.9728 11.8923 7.18959 11.8958C7.59811 11.9028 7.90523 12.2041 7.90581 12.5928C7.90639 12.9815 7.60044 13.2886 7.1925 13.2927C6.6109 13.2979 6.0293 13.2962 5.44711 13.2933C5.27753 13.2921 5.12426 13.3242 5.12076 13.524C5.11727 13.7257 5.2717 13.7647 5.44012 13.7647C5.74549 13.7647 6.05144 13.7589 6.35623 13.77C7.15928 13.7997 7.80965 14.4174 7.8994 15.2251C7.98507 15.9961 7.47922 16.7473 6.72978 16.9612C6.66102 16.981 6.59109 16.9979 6.52465 17.0148C6.46113 17.6699 6.26007 17.942 5.83291 17.9589C5.40865 17.9758 5.18487 17.6996 5.09163 17.0212C4.8795 17.0212 4.66329 17.0247 4.44708 17.0206C4.02982 17.0125 3.72504 16.7252 3.71863 16.3388C3.71163 15.9396 4.01292 15.6331 4.44126 15.6255C4.95701 15.6162 5.47334 15.6214 5.98967 15.6208C6.06252 15.6208 6.13536 15.6208 6.20762 15.6232C6.37371 15.6278 6.50717 15.5754 6.50367 15.3866C6.50076 15.2112 6.37313 15.1622 6.21578 15.1634C5.92498 15.1651 5.6336 15.1709 5.34338 15.161C4.56597 15.1348 3.93483 14.6348 3.76583 13.9203C3.59333 13.1919 3.91618 12.4547 4.56422 12.0974C4.69301 12.0263 5.10794 11.5485 5.16214 11.4098C5.28219 11.0997 5.59397 10.9243 5.93489 10.9762C6.23385 11.0216 6.48153 11.292 6.50717 11.6067C6.51474 11.6924 6.50833 11.7798 6.50833 11.8952Z" fill="#E7E7E7"/>
</svg>
